<svg xmlns="http://www.w3.org/2000/svg" xmlns:xlink="http://www.w3.org/1999/xlink" fill="none" version="1.1" width="210" height="210" viewBox="0 0 210 210"><path d="M0,80L0,20C0,8.9543076,8.9543076,0,20,0L80,0C91.0457,0,100,8.9543076,100,20L100,80C100,91.0457,91.0457,100,80,100L20,100C8.9543076,100,0,91.0457,0,80ZM0,190L0,130C0,118.95431,8.9543076,110,20,110L80,110C91.0457,110,100,118.95431,100,130L100,190C100,201.04568,91.0457,210,80,210L20,210C8.9543076,210,0,201.04568,0,190ZM110,80L110,20C110,8.9543076,118.95431,0,130,0L190,0C201.04568,0,210,8.9543076,210,20L210,80C210,91.0457,201.04568,100,190,100L130,100C118.95431,100,110,91.0457,110,80ZM110,190L110,130C110,118.95431,118.95431,110,130,110L190,110C201.04568,110,210,118.95431,210,130L210,190C210,201.04568,201.04568,210,190,210L130,210C118.95431,210,110,201.04568,110,190Z" fill="#D8D8D8" fill-opacity="1"/></svg>